<mxfile host="app.diagrams.net" modified="2020-10-20T07:27:31.989Z" agent="5.0 (Windows NT 10.0; Win64; x64) AppleWebKit/537.36 (KHTML, like Gecko) Chrome/85.0.4183.121 Safari/537.36 OPR/71.0.3770.228" etag="4emsIqCsWtd4Vc56r6_r" version="13.8.0" type="github" pages="2">
  <diagram id="Q-yisilWaRMRs0ZSbcxf" name="Bills Collection - Approver">
    <mxGraphModel dx="1152" dy="670" grid="1" gridSize="10" guides="1" tooltips="1" connect="1" arrows="1" fold="1" page="0" pageScale="1" pageWidth="850" pageHeight="1100" math="0" shadow="0">
      <root>
        <mxCell id="0" />
        <mxCell id="1" parent="0" />
        <mxCell id="fB9JVBKdTHwXwevY102O-4" value="" style="rounded=0;whiteSpace=wrap;html=1;" parent="1" vertex="1">
          <mxGeometry x="30" y="11.72" width="875" height="940" as="geometry" />
        </mxCell>
        <mxCell id="fB9JVBKdTHwXwevY102O-80" value="Total Transaction: 6" style="text;html=1;strokeColor=none;fillColor=none;align=left;verticalAlign=middle;whiteSpace=wrap;rounded=0;fontStyle=1;fontSize=14;" parent="1" vertex="1">
          <mxGeometry x="50" y="40" width="144" height="20" as="geometry" />
        </mxCell>
        <mxCell id="fB9JVBKdTHwXwevY102O-81" value="Total Collection Due: PHP 178, 653.00" style="text;html=1;strokeColor=none;fillColor=none;align=left;verticalAlign=middle;whiteSpace=wrap;rounded=0;fontStyle=1;fontSize=14;" parent="1" vertex="1">
          <mxGeometry x="50" y="70" width="294" height="20" as="geometry" />
        </mxCell>
        <mxCell id="tgkvtCJn9DM2HxAnFSPY-1" value="" style="group" vertex="1" connectable="0" parent="1">
          <mxGeometry x="45" y="250" width="825" height="463.44000000000005" as="geometry" />
        </mxCell>
        <mxCell id="fB9JVBKdTHwXwevY102O-134" value="Reference Number" style="html=1;fillColor=none;strokeColor=none;fontSize=11;align=left;fontColor=#596780;whiteSpace=wrap;rounded=0;" parent="tgkvtCJn9DM2HxAnFSPY-1" vertex="1">
          <mxGeometry x="27" y="50" width="150" height="20" as="geometry" />
        </mxCell>
        <mxCell id="fB9JVBKdTHwXwevY102O-135" value="Total Amount" style="html=1;fillColor=none;strokeColor=none;fontSize=11;align=left;fontColor=#596780;whiteSpace=wrap;rounded=0;" parent="tgkvtCJn9DM2HxAnFSPY-1" vertex="1">
          <mxGeometry x="261" y="50" width="100" height="20" as="geometry" />
        </mxCell>
        <mxCell id="fB9JVBKdTHwXwevY102O-136" value="" style="shape=line;strokeWidth=2;html=1;strokeColor=#DFE1E5;resizeWidth=1;rounded=0;fillColor=none;fontSize=14;align=left;" parent="tgkvtCJn9DM2HxAnFSPY-1" vertex="1">
          <mxGeometry y="70" width="825" height="10" as="geometry" />
        </mxCell>
        <mxCell id="fB9JVBKdTHwXwevY102O-164" value="Date Added" style="html=1;fillColor=none;strokeColor=none;fontSize=11;align=left;fontColor=#596780;whiteSpace=wrap;rounded=0;" parent="tgkvtCJn9DM2HxAnFSPY-1" vertex="1">
          <mxGeometry x="164" y="50" width="100" height="20" as="geometry" />
        </mxCell>
        <mxCell id="fB9JVBKdTHwXwevY102O-165" value="Notes" style="html=1;fillColor=none;strokeColor=none;fontSize=11;align=left;fontColor=#596780;whiteSpace=wrap;rounded=0;" parent="tgkvtCJn9DM2HxAnFSPY-1" vertex="1">
          <mxGeometry x="411" y="50" width="100" height="20" as="geometry" />
        </mxCell>
        <mxCell id="fB9JVBKdTHwXwevY102O-166" value="Is Scheduled" style="html=1;fillColor=none;strokeColor=none;fontSize=11;align=left;fontColor=#596780;whiteSpace=wrap;rounded=0;" parent="tgkvtCJn9DM2HxAnFSPY-1" vertex="1">
          <mxGeometry x="521" y="50" width="100" height="20" as="geometry" />
        </mxCell>
        <mxCell id="fB9JVBKdTHwXwevY102O-167" value="Status" style="html=1;fillColor=none;strokeColor=none;fontSize=11;align=left;fontColor=#596780;whiteSpace=wrap;rounded=0;" parent="tgkvtCJn9DM2HxAnFSPY-1" vertex="1">
          <mxGeometry x="615" y="50" width="50" height="20" as="geometry" />
        </mxCell>
        <mxCell id="fB9JVBKdTHwXwevY102O-169" value="" style="shape=line;strokeWidth=2;html=1;strokeColor=#DFE1E5;resizeWidth=1;rounded=0;fillColor=none;fontSize=14;align=left;" parent="tgkvtCJn9DM2HxAnFSPY-1" vertex="1">
          <mxGeometry y="410" width="815" height="10" as="geometry" />
        </mxCell>
        <mxCell id="fB9JVBKdTHwXwevY102O-178" value="Action" style="html=1;fillColor=none;strokeColor=none;fontSize=11;align=left;fontColor=#596780;whiteSpace=wrap;rounded=0;" parent="tgkvtCJn9DM2HxAnFSPY-1" vertex="1">
          <mxGeometry x="695" y="50" width="50" height="20" as="geometry" />
        </mxCell>
        <mxCell id="fB9JVBKdTHwXwevY102O-186" value="" style="group;fontStyle=4" parent="tgkvtCJn9DM2HxAnFSPY-1" vertex="1" connectable="0">
          <mxGeometry x="5" y="96" width="790" height="20" as="geometry" />
        </mxCell>
        <mxCell id="fB9JVBKdTHwXwevY102O-138" value="TC-12345-0001" style="html=1;fillColor=none;strokeColor=none;fontSize=12;align=left;fontColor=#000000;whiteSpace=wrap;fontStyle=1;rounded=0;" parent="fB9JVBKdTHwXwevY102O-186" vertex="1">
          <mxGeometry x="22" width="110" height="20" as="geometry" />
        </mxCell>
        <mxCell id="fB9JVBKdTHwXwevY102O-176" value="12/12/2020" style="html=1;fillColor=none;strokeColor=none;fontSize=12;align=left;fontColor=#000000;whiteSpace=wrap;fontStyle=1;rounded=0;" parent="fB9JVBKdTHwXwevY102O-186" vertex="1">
          <mxGeometry x="154" width="110" height="20" as="geometry" />
        </mxCell>
        <mxCell id="fB9JVBKdTHwXwevY102O-177" value="PHP 45,789.00" style="html=1;fillColor=none;strokeColor=none;fontSize=12;align=left;fontColor=#000000;whiteSpace=wrap;fontStyle=1;rounded=0;" parent="fB9JVBKdTHwXwevY102O-186" vertex="1">
          <mxGeometry x="250" width="91" height="20" as="geometry" />
        </mxCell>
        <mxCell id="fB9JVBKdTHwXwevY102O-180" value="" style="html=1;shadow=0;dashed=0;shape=mxgraph.bootstrap.checkbox2;labelPosition=right;verticalLabelPosition=middle;align=left;verticalAlign=middle;gradientColor=#DEDEDE;fillColor=#EDEDED;checked=0;spacing=5;checkedFill=#0085FC;checkedStroke=#ffffff;rounded=0;strokeColor=#C7C7C7;strokeWidth=1;fontSize=14;" parent="fB9JVBKdTHwXwevY102O-186" vertex="1">
          <mxGeometry y="5" width="10" height="10" as="geometry" />
        </mxCell>
        <mxCell id="fB9JVBKdTHwXwevY102O-181" value="Batch Request - [12/12/2020] - [TC-12345-0001]" style="html=1;fillColor=none;strokeColor=none;fontSize=12;align=center;fontColor=#000000;whiteSpace=wrap;fontStyle=0;rounded=0;" parent="fB9JVBKdTHwXwevY102O-186" vertex="1">
          <mxGeometry x="360" width="150" height="20" as="geometry" />
        </mxCell>
        <mxCell id="fB9JVBKdTHwXwevY102O-182" value="12/12/2020" style="html=1;fillColor=none;strokeColor=none;fontSize=12;align=left;fontColor=#000000;whiteSpace=wrap;fontStyle=1;rounded=0;" parent="fB9JVBKdTHwXwevY102O-186" vertex="1">
          <mxGeometry x="154" width="66" height="20" as="geometry" />
        </mxCell>
        <mxCell id="fB9JVBKdTHwXwevY102O-183" value="No" style="html=1;fillColor=none;strokeColor=none;fontSize=12;align=center;fontColor=#000000;whiteSpace=wrap;fontStyle=1;rounded=0;" parent="fB9JVBKdTHwXwevY102O-186" vertex="1">
          <mxGeometry x="530" width="34" height="20" as="geometry" />
        </mxCell>
        <mxCell id="fB9JVBKdTHwXwevY102O-184" value="Pending" style="html=1;fillColor=none;strokeColor=none;fontSize=12;align=center;fontColor=#000000;whiteSpace=wrap;fontStyle=1;rounded=0;" parent="fB9JVBKdTHwXwevY102O-186" vertex="1">
          <mxGeometry x="600" width="54" height="20" as="geometry" />
        </mxCell>
        <mxCell id="fB9JVBKdTHwXwevY102O-185" value="Download Report" style="html=1;fillColor=none;strokeColor=none;fontSize=12;align=center;whiteSpace=wrap;fontStyle=4;rounded=0;fontColor=#4FBEFF;" parent="fB9JVBKdTHwXwevY102O-186" vertex="1">
          <mxGeometry x="686" width="104" height="20" as="geometry" />
        </mxCell>
        <mxCell id="fB9JVBKdTHwXwevY102O-187" value="" style="group" parent="tgkvtCJn9DM2HxAnFSPY-1" vertex="1" connectable="0">
          <mxGeometry x="5" y="150" width="790" height="20" as="geometry" />
        </mxCell>
        <mxCell id="fB9JVBKdTHwXwevY102O-188" value="TC-12345-0002" style="html=1;fillColor=none;strokeColor=none;fontSize=12;align=left;fontColor=#000000;whiteSpace=wrap;fontStyle=1;rounded=0;" parent="fB9JVBKdTHwXwevY102O-187" vertex="1">
          <mxGeometry x="22" width="110" height="20" as="geometry" />
        </mxCell>
        <mxCell id="fB9JVBKdTHwXwevY102O-189" value="12/12/2020" style="html=1;fillColor=none;strokeColor=none;fontSize=12;align=left;fontColor=#000000;whiteSpace=wrap;fontStyle=1;rounded=0;" parent="fB9JVBKdTHwXwevY102O-187" vertex="1">
          <mxGeometry x="154" width="110" height="20" as="geometry" />
        </mxCell>
        <mxCell id="fB9JVBKdTHwXwevY102O-190" value="PHP 45,789.00" style="html=1;fillColor=none;strokeColor=none;fontSize=12;align=left;fontColor=#000000;whiteSpace=wrap;fontStyle=1;rounded=0;" parent="fB9JVBKdTHwXwevY102O-187" vertex="1">
          <mxGeometry x="250" width="91" height="20" as="geometry" />
        </mxCell>
        <mxCell id="fB9JVBKdTHwXwevY102O-191" value="" style="html=1;shadow=0;dashed=0;shape=mxgraph.bootstrap.checkbox2;labelPosition=right;verticalLabelPosition=middle;align=left;verticalAlign=middle;gradientColor=#DEDEDE;fillColor=#EDEDED;checked=0;spacing=5;checkedFill=#0085FC;checkedStroke=#ffffff;rounded=0;strokeColor=#C7C7C7;strokeWidth=1;fontSize=14;" parent="fB9JVBKdTHwXwevY102O-187" vertex="1">
          <mxGeometry y="5" width="10" height="10" as="geometry" />
        </mxCell>
        <mxCell id="fB9JVBKdTHwXwevY102O-192" value="Batch Request - [12/12/2020] - [TC-12345-0001]" style="html=1;fillColor=none;strokeColor=none;fontSize=12;align=center;fontColor=#000000;whiteSpace=wrap;fontStyle=0;rounded=0;" parent="fB9JVBKdTHwXwevY102O-187" vertex="1">
          <mxGeometry x="360" width="150" height="20" as="geometry" />
        </mxCell>
        <mxCell id="fB9JVBKdTHwXwevY102O-193" value="12/12/2020" style="html=1;fillColor=none;strokeColor=none;fontSize=12;align=left;fontColor=#000000;whiteSpace=wrap;fontStyle=1;rounded=0;" parent="fB9JVBKdTHwXwevY102O-187" vertex="1">
          <mxGeometry x="154" width="66" height="20" as="geometry" />
        </mxCell>
        <mxCell id="fB9JVBKdTHwXwevY102O-194" value="Yes" style="html=1;fillColor=none;strokeColor=none;fontSize=12;align=center;fontColor=#000000;whiteSpace=wrap;fontStyle=1;rounded=0;" parent="fB9JVBKdTHwXwevY102O-187" vertex="1">
          <mxGeometry x="530" width="34" height="20" as="geometry" />
        </mxCell>
        <mxCell id="fB9JVBKdTHwXwevY102O-195" value="Rejected" style="html=1;fillColor=none;strokeColor=none;fontSize=12;align=center;fontColor=#000000;whiteSpace=wrap;fontStyle=1;rounded=0;" parent="fB9JVBKdTHwXwevY102O-187" vertex="1">
          <mxGeometry x="600" width="54" height="20" as="geometry" />
        </mxCell>
        <mxCell id="fB9JVBKdTHwXwevY102O-196" value="Download Report" style="html=1;fillColor=none;strokeColor=none;fontSize=12;align=center;whiteSpace=wrap;fontStyle=4;rounded=0;fontColor=#4FBEFF;" parent="fB9JVBKdTHwXwevY102O-187" vertex="1">
          <mxGeometry x="686" width="104" height="20" as="geometry" />
        </mxCell>
        <mxCell id="fB9JVBKdTHwXwevY102O-198" value="" style="group" parent="tgkvtCJn9DM2HxAnFSPY-1" vertex="1" connectable="0">
          <mxGeometry x="5" y="200" width="790" height="20" as="geometry" />
        </mxCell>
        <mxCell id="fB9JVBKdTHwXwevY102O-199" value="TC-12345-0003" style="html=1;fillColor=none;strokeColor=none;fontSize=12;align=left;fontColor=#000000;whiteSpace=wrap;fontStyle=1;rounded=0;" parent="fB9JVBKdTHwXwevY102O-198" vertex="1">
          <mxGeometry x="22" width="110" height="20" as="geometry" />
        </mxCell>
        <mxCell id="fB9JVBKdTHwXwevY102O-200" value="12/12/2020" style="html=1;fillColor=none;strokeColor=none;fontSize=12;align=left;fontColor=#000000;whiteSpace=wrap;fontStyle=1;rounded=0;" parent="fB9JVBKdTHwXwevY102O-198" vertex="1">
          <mxGeometry x="154" width="110" height="20" as="geometry" />
        </mxCell>
        <mxCell id="fB9JVBKdTHwXwevY102O-201" value="PHP 15,789.00" style="html=1;fillColor=none;strokeColor=none;fontSize=12;align=left;fontColor=#000000;whiteSpace=wrap;fontStyle=1;rounded=0;" parent="fB9JVBKdTHwXwevY102O-198" vertex="1">
          <mxGeometry x="250" width="91" height="20" as="geometry" />
        </mxCell>
        <mxCell id="fB9JVBKdTHwXwevY102O-203" value="Batch Request - [12/12/2020] - [TC-12345-0001]" style="html=1;fillColor=none;strokeColor=none;fontSize=12;align=center;fontColor=#000000;whiteSpace=wrap;fontStyle=0;rounded=0;" parent="fB9JVBKdTHwXwevY102O-198" vertex="1">
          <mxGeometry x="360" width="150" height="20" as="geometry" />
        </mxCell>
        <mxCell id="fB9JVBKdTHwXwevY102O-204" value="12/12/2020" style="html=1;fillColor=none;strokeColor=none;fontSize=12;align=left;fontColor=#000000;whiteSpace=wrap;fontStyle=1;rounded=0;" parent="fB9JVBKdTHwXwevY102O-198" vertex="1">
          <mxGeometry x="154" width="66" height="20" as="geometry" />
        </mxCell>
        <mxCell id="fB9JVBKdTHwXwevY102O-205" value="No" style="html=1;fillColor=none;strokeColor=none;fontSize=12;align=center;fontColor=#000000;whiteSpace=wrap;fontStyle=1;rounded=0;" parent="fB9JVBKdTHwXwevY102O-198" vertex="1">
          <mxGeometry x="530" width="34" height="20" as="geometry" />
        </mxCell>
        <mxCell id="fB9JVBKdTHwXwevY102O-206" value="Pending" style="html=1;fillColor=none;strokeColor=none;fontSize=12;align=center;fontColor=#000000;whiteSpace=wrap;fontStyle=1;rounded=0;" parent="fB9JVBKdTHwXwevY102O-198" vertex="1">
          <mxGeometry x="600" width="54" height="20" as="geometry" />
        </mxCell>
        <mxCell id="fB9JVBKdTHwXwevY102O-207" value="Download Report" style="html=1;fillColor=none;strokeColor=none;fontSize=12;align=center;whiteSpace=wrap;fontStyle=4;rounded=0;fontColor=#4FBEFF;" parent="fB9JVBKdTHwXwevY102O-198" vertex="1">
          <mxGeometry x="686" width="104" height="20" as="geometry" />
        </mxCell>
        <mxCell id="fB9JVBKdTHwXwevY102O-208" value="" style="group;fontStyle=4" parent="tgkvtCJn9DM2HxAnFSPY-1" vertex="1" connectable="0">
          <mxGeometry x="5" y="250" width="790" height="20" as="geometry" />
        </mxCell>
        <mxCell id="fB9JVBKdTHwXwevY102O-209" value="TC-12345-0004" style="html=1;fillColor=none;strokeColor=none;fontSize=12;align=left;fontColor=#000000;whiteSpace=wrap;fontStyle=1;rounded=0;" parent="fB9JVBKdTHwXwevY102O-208" vertex="1">
          <mxGeometry x="22" width="110" height="20" as="geometry" />
        </mxCell>
        <mxCell id="fB9JVBKdTHwXwevY102O-210" value="12/12/2020" style="html=1;fillColor=none;strokeColor=none;fontSize=12;align=left;fontColor=#000000;whiteSpace=wrap;fontStyle=1;rounded=0;" parent="fB9JVBKdTHwXwevY102O-208" vertex="1">
          <mxGeometry x="154" width="110" height="20" as="geometry" />
        </mxCell>
        <mxCell id="fB9JVBKdTHwXwevY102O-211" value="PHP 3,580.00" style="html=1;fillColor=none;strokeColor=none;fontSize=12;align=left;fontColor=#000000;whiteSpace=wrap;fontStyle=1;rounded=0;" parent="fB9JVBKdTHwXwevY102O-208" vertex="1">
          <mxGeometry x="250" width="91" height="20" as="geometry" />
        </mxCell>
        <mxCell id="fB9JVBKdTHwXwevY102O-213" value="Batch Request - [12/12/2020] - [TC-12345-0001]" style="html=1;fillColor=none;strokeColor=none;fontSize=12;align=center;fontColor=#000000;whiteSpace=wrap;fontStyle=0;rounded=0;" parent="fB9JVBKdTHwXwevY102O-208" vertex="1">
          <mxGeometry x="360" width="150" height="20" as="geometry" />
        </mxCell>
        <mxCell id="fB9JVBKdTHwXwevY102O-214" value="12/12/2020" style="html=1;fillColor=none;strokeColor=none;fontSize=12;align=left;fontColor=#000000;whiteSpace=wrap;fontStyle=1;rounded=0;" parent="fB9JVBKdTHwXwevY102O-208" vertex="1">
          <mxGeometry x="154" width="66" height="20" as="geometry" />
        </mxCell>
        <mxCell id="fB9JVBKdTHwXwevY102O-215" value="No" style="html=1;fillColor=none;strokeColor=none;fontSize=12;align=center;fontColor=#000000;whiteSpace=wrap;fontStyle=1;rounded=0;" parent="fB9JVBKdTHwXwevY102O-208" vertex="1">
          <mxGeometry x="530" width="34" height="20" as="geometry" />
        </mxCell>
        <mxCell id="fB9JVBKdTHwXwevY102O-216" value="Pending" style="html=1;fillColor=none;strokeColor=none;fontSize=12;align=center;fontColor=#000000;whiteSpace=wrap;fontStyle=1;rounded=0;" parent="fB9JVBKdTHwXwevY102O-208" vertex="1">
          <mxGeometry x="600" width="54" height="20" as="geometry" />
        </mxCell>
        <mxCell id="fB9JVBKdTHwXwevY102O-217" value="Download Report" style="html=1;fillColor=none;strokeColor=none;fontSize=12;align=center;whiteSpace=wrap;fontStyle=4;rounded=0;fontColor=#4FBEFF;" parent="fB9JVBKdTHwXwevY102O-208" vertex="1">
          <mxGeometry x="686" width="104" height="20" as="geometry" />
        </mxCell>
        <mxCell id="fB9JVBKdTHwXwevY102O-218" value="" style="group" parent="tgkvtCJn9DM2HxAnFSPY-1" vertex="1" connectable="0">
          <mxGeometry x="5" y="310" width="790" height="20" as="geometry" />
        </mxCell>
        <mxCell id="fB9JVBKdTHwXwevY102O-219" value="TC-12345-0005" style="html=1;fillColor=none;strokeColor=none;fontSize=12;align=left;fontColor=#000000;whiteSpace=wrap;fontStyle=1;rounded=0;" parent="fB9JVBKdTHwXwevY102O-218" vertex="1">
          <mxGeometry x="22" width="110" height="20" as="geometry" />
        </mxCell>
        <mxCell id="fB9JVBKdTHwXwevY102O-220" value="12/12/2020" style="html=1;fillColor=none;strokeColor=none;fontSize=12;align=left;fontColor=#000000;whiteSpace=wrap;fontStyle=1;rounded=0;" parent="fB9JVBKdTHwXwevY102O-218" vertex="1">
          <mxGeometry x="154" width="110" height="20" as="geometry" />
        </mxCell>
        <mxCell id="fB9JVBKdTHwXwevY102O-221" value="PHP 45,789.00" style="html=1;fillColor=none;strokeColor=none;fontSize=12;align=left;fontColor=#000000;whiteSpace=wrap;fontStyle=1;rounded=0;" parent="fB9JVBKdTHwXwevY102O-218" vertex="1">
          <mxGeometry x="250" width="91" height="20" as="geometry" />
        </mxCell>
        <mxCell id="fB9JVBKdTHwXwevY102O-222" value="" style="html=1;shadow=0;dashed=0;shape=mxgraph.bootstrap.checkbox2;labelPosition=right;verticalLabelPosition=middle;align=left;verticalAlign=middle;gradientColor=#DEDEDE;fillColor=#EDEDED;checked=0;spacing=5;checkedFill=#0085FC;checkedStroke=#ffffff;rounded=0;strokeColor=#C7C7C7;strokeWidth=1;fontSize=14;" parent="fB9JVBKdTHwXwevY102O-218" vertex="1">
          <mxGeometry y="5" width="10" height="10" as="geometry" />
        </mxCell>
        <mxCell id="fB9JVBKdTHwXwevY102O-223" value="Batch Request - [12/12/2020] - [TC-12345-0001]" style="html=1;fillColor=none;strokeColor=none;fontSize=12;align=center;fontColor=#000000;whiteSpace=wrap;fontStyle=0;rounded=0;" parent="fB9JVBKdTHwXwevY102O-218" vertex="1">
          <mxGeometry x="360" width="150" height="20" as="geometry" />
        </mxCell>
        <mxCell id="fB9JVBKdTHwXwevY102O-224" value="12/12/2020" style="html=1;fillColor=none;strokeColor=none;fontSize=12;align=left;fontColor=#000000;whiteSpace=wrap;fontStyle=1;rounded=0;" parent="fB9JVBKdTHwXwevY102O-218" vertex="1">
          <mxGeometry x="154" width="66" height="20" as="geometry" />
        </mxCell>
        <mxCell id="fB9JVBKdTHwXwevY102O-225" value="Yes" style="html=1;fillColor=none;strokeColor=none;fontSize=12;align=center;fontColor=#000000;whiteSpace=wrap;fontStyle=1;rounded=0;" parent="fB9JVBKdTHwXwevY102O-218" vertex="1">
          <mxGeometry x="530" width="34" height="20" as="geometry" />
        </mxCell>
        <mxCell id="fB9JVBKdTHwXwevY102O-226" value="Rejected" style="html=1;fillColor=none;strokeColor=none;fontSize=12;align=center;fontColor=#000000;whiteSpace=wrap;fontStyle=1;rounded=0;" parent="fB9JVBKdTHwXwevY102O-218" vertex="1">
          <mxGeometry x="600" width="54" height="20" as="geometry" />
        </mxCell>
        <mxCell id="fB9JVBKdTHwXwevY102O-227" value="Download Report" style="html=1;fillColor=none;strokeColor=none;fontSize=12;align=center;whiteSpace=wrap;fontStyle=4;rounded=0;fontColor=#4FBEFF;" parent="fB9JVBKdTHwXwevY102O-218" vertex="1">
          <mxGeometry x="686" width="104" height="20" as="geometry" />
        </mxCell>
        <mxCell id="fB9JVBKdTHwXwevY102O-228" value="" style="group" parent="tgkvtCJn9DM2HxAnFSPY-1" vertex="1" connectable="0">
          <mxGeometry x="5" y="370" width="790" height="20" as="geometry" />
        </mxCell>
        <mxCell id="fB9JVBKdTHwXwevY102O-229" value="TC-12345-0006" style="html=1;fillColor=none;strokeColor=none;fontSize=12;align=left;fontColor=#000000;whiteSpace=wrap;fontStyle=1;rounded=0;" parent="fB9JVBKdTHwXwevY102O-228" vertex="1">
          <mxGeometry x="22" width="110" height="20" as="geometry" />
        </mxCell>
        <mxCell id="fB9JVBKdTHwXwevY102O-230" value="12/12/2020" style="html=1;fillColor=none;strokeColor=none;fontSize=12;align=left;fontColor=#000000;whiteSpace=wrap;fontStyle=1;rounded=0;" parent="fB9JVBKdTHwXwevY102O-228" vertex="1">
          <mxGeometry x="154" width="110" height="20" as="geometry" />
        </mxCell>
        <mxCell id="fB9JVBKdTHwXwevY102O-231" value="PHP 21,917.00" style="html=1;fillColor=none;strokeColor=none;fontSize=12;align=left;fontColor=#000000;whiteSpace=wrap;fontStyle=1;rounded=0;" parent="fB9JVBKdTHwXwevY102O-228" vertex="1">
          <mxGeometry x="250" width="91" height="20" as="geometry" />
        </mxCell>
        <mxCell id="fB9JVBKdTHwXwevY102O-233" value="Batch Request - [12/12/2020] - [TC-12345-0001]" style="html=1;fillColor=none;strokeColor=none;fontSize=12;align=center;fontColor=#000000;whiteSpace=wrap;fontStyle=0;rounded=0;" parent="fB9JVBKdTHwXwevY102O-228" vertex="1">
          <mxGeometry x="360" width="150" height="20" as="geometry" />
        </mxCell>
        <mxCell id="fB9JVBKdTHwXwevY102O-234" value="12/12/2020" style="html=1;fillColor=none;strokeColor=none;fontSize=12;align=left;fontColor=#000000;whiteSpace=wrap;fontStyle=1;rounded=0;" parent="fB9JVBKdTHwXwevY102O-228" vertex="1">
          <mxGeometry x="154" width="66" height="20" as="geometry" />
        </mxCell>
        <mxCell id="fB9JVBKdTHwXwevY102O-235" value="No" style="html=1;fillColor=none;strokeColor=none;fontSize=12;align=center;fontColor=#000000;whiteSpace=wrap;fontStyle=1;rounded=0;" parent="fB9JVBKdTHwXwevY102O-228" vertex="1">
          <mxGeometry x="530" width="34" height="20" as="geometry" />
        </mxCell>
        <mxCell id="fB9JVBKdTHwXwevY102O-236" value="Pending" style="html=1;fillColor=none;strokeColor=none;fontSize=12;align=center;fontColor=#000000;whiteSpace=wrap;fontStyle=1;rounded=0;" parent="fB9JVBKdTHwXwevY102O-228" vertex="1">
          <mxGeometry x="600" width="54" height="20" as="geometry" />
        </mxCell>
        <mxCell id="fB9JVBKdTHwXwevY102O-237" value="Download Report" style="html=1;fillColor=none;strokeColor=none;fontSize=12;align=center;whiteSpace=wrap;fontStyle=4;rounded=0;fontColor=#4FBEFF;" parent="fB9JVBKdTHwXwevY102O-228" vertex="1">
          <mxGeometry x="686" width="104" height="20" as="geometry" />
        </mxCell>
        <mxCell id="fB9JVBKdTHwXwevY102O-238" value="Reject" style="rounded=1;html=1;shadow=0;dashed=0;whiteSpace=wrap;fontSize=10;fillColor=#E6E6E6;align=center;strokeColor=#E6E6E6;fontColor=#333333;" parent="tgkvtCJn9DM2HxAnFSPY-1" vertex="1">
          <mxGeometry x="709.5" y="436.55999999999995" width="105.5" height="26.88" as="geometry" />
        </mxCell>
        <mxCell id="AwUBtOr6If3FMIu2zdxh-1" value="Approve" style="rounded=1;html=1;shadow=0;dashed=0;whiteSpace=wrap;fontSize=10;fillColor=#E6E6E6;align=center;strokeColor=#E6E6E6;fontColor=#333333;" vertex="1" parent="tgkvtCJn9DM2HxAnFSPY-1">
          <mxGeometry x="588.25" y="436.55999999999995" width="105.5" height="26.88" as="geometry" />
        </mxCell>
        <mxCell id="AwUBtOr6If3FMIu2zdxh-2" value="Reject" style="rounded=1;html=1;shadow=0;dashed=0;whiteSpace=wrap;fontSize=10;fillColor=#E6E6E6;align=center;strokeColor=#E6E6E6;fontColor=#333333;" vertex="1" parent="tgkvtCJn9DM2HxAnFSPY-1">
          <mxGeometry x="719.5" width="105.5" height="26.88" as="geometry" />
        </mxCell>
        <mxCell id="AwUBtOr6If3FMIu2zdxh-3" value="Approve" style="rounded=1;html=1;shadow=0;dashed=0;whiteSpace=wrap;fontSize=10;fillColor=#E6E6E6;align=center;strokeColor=#E6E6E6;fontColor=#333333;" vertex="1" parent="tgkvtCJn9DM2HxAnFSPY-1">
          <mxGeometry x="598.25" width="105.5" height="26.88" as="geometry" />
        </mxCell>
        <mxCell id="AwUBtOr6If3FMIu2zdxh-5" value="3 items selected (Amount: PHP 41,286.00)" style="text;html=1;strokeColor=none;fillColor=none;align=left;verticalAlign=middle;whiteSpace=wrap;rounded=0;fontStyle=1;fontSize=14;" vertex="1" parent="tgkvtCJn9DM2HxAnFSPY-1">
          <mxGeometry x="5" y="6.8799999999999955" width="310" height="20" as="geometry" />
        </mxCell>
        <mxCell id="AwUBtOr6If3FMIu2zdxh-7" value="" style="dashed=0;labelPosition=right;align=left;shape=mxgraph.gmdl.checkbox;strokeColor=none;fillColor=#009587;strokeWidth=2;" vertex="1" parent="tgkvtCJn9DM2HxAnFSPY-1">
          <mxGeometry x="5" y="205" width="10" height="10" as="geometry" />
        </mxCell>
        <mxCell id="AwUBtOr6If3FMIu2zdxh-8" value="" style="dashed=0;labelPosition=right;align=left;shape=mxgraph.gmdl.checkbox;strokeColor=none;fillColor=#009587;strokeWidth=2;" vertex="1" parent="tgkvtCJn9DM2HxAnFSPY-1">
          <mxGeometry x="5" y="255" width="10" height="10" as="geometry" />
        </mxCell>
        <mxCell id="AwUBtOr6If3FMIu2zdxh-9" value="" style="dashed=0;labelPosition=right;align=left;shape=mxgraph.gmdl.checkbox;strokeColor=none;fillColor=#009587;strokeWidth=2;" vertex="1" parent="tgkvtCJn9DM2HxAnFSPY-1">
          <mxGeometry x="5" y="375" width="10" height="10" as="geometry" />
        </mxCell>
        <mxCell id="AwUBtOr6If3FMIu2zdxh-11" value="3 items selected (Amount: PHP 41,286.00)" style="text;html=1;strokeColor=none;fillColor=none;align=left;verticalAlign=middle;whiteSpace=wrap;rounded=0;fontStyle=1;fontSize=14;" vertex="1" parent="tgkvtCJn9DM2HxAnFSPY-1">
          <mxGeometry x="5" y="443.44000000000005" width="310" height="20" as="geometry" />
        </mxCell>
        <mxCell id="k5Fv5MesE7oB9ST0vC1J-1" value="" style="group" vertex="1" connectable="0" parent="1">
          <mxGeometry x="50" y="110" width="754" height="80" as="geometry" />
        </mxCell>
        <mxCell id="fB9JVBKdTHwXwevY102O-10" value="Status" style="rounded=1;html=1;fontColor=#596780;align=left;fontSize=12;spacingLeft=10;strokeColor=#CED4DA;fillColor=none;" parent="k5Fv5MesE7oB9ST0vC1J-1" vertex="1">
          <mxGeometry x="384" width="170" height="30" as="geometry" />
        </mxCell>
        <mxCell id="fB9JVBKdTHwXwevY102O-11" value="" style="shape=triangle;direction=south;fillColor=#596780;strokeColor=none;html=1" parent="fB9JVBKdTHwXwevY102O-10" vertex="1">
          <mxGeometry x="1" y="0.5" width="12" height="6" relative="1" as="geometry">
            <mxPoint x="-20" y="-3" as="offset" />
          </mxGeometry>
        </mxCell>
        <mxCell id="fB9JVBKdTHwXwevY102O-13" value="Search reference no. and notes...." style="html=1;shadow=0;dashed=0;shape=mxgraph.bootstrap.rrect;rSize=5;strokeColor=#CED4DA;strokeWidth=1;fontColor=#505050;whiteSpace=wrap;align=left;verticalAlign=middle;spacingLeft=10;fontSize=14;fillColor=none;" parent="k5Fv5MesE7oB9ST0vC1J-1" vertex="1">
          <mxGeometry width="374" height="30" as="geometry" />
        </mxCell>
        <mxCell id="fB9JVBKdTHwXwevY102O-16" value="Minimum" style="rounded=1;html=1;fontColor=#596780;align=left;fontSize=12;spacingLeft=10;strokeColor=#CED4DA;fillColor=none;" parent="k5Fv5MesE7oB9ST0vC1J-1" vertex="1">
          <mxGeometry x="124" y="50" width="100" height="30" as="geometry" />
        </mxCell>
        <mxCell id="fB9JVBKdTHwXwevY102O-17" value="" style="shape=triangle;direction=south;fillColor=#596780;strokeColor=none;html=1" parent="fB9JVBKdTHwXwevY102O-16" vertex="1">
          <mxGeometry x="1" y="0.5" width="12" height="6" relative="1" as="geometry">
            <mxPoint x="-20" y="-3" as="offset" />
          </mxGeometry>
        </mxCell>
        <mxCell id="fB9JVBKdTHwXwevY102O-19" value="Maximum" style="rounded=1;html=1;fontColor=#596780;align=left;fontSize=12;spacingLeft=10;strokeColor=#CED4DA;fillColor=none;" parent="k5Fv5MesE7oB9ST0vC1J-1" vertex="1">
          <mxGeometry x="234" y="50" width="100" height="30" as="geometry" />
        </mxCell>
        <mxCell id="fB9JVBKdTHwXwevY102O-20" value="" style="shape=triangle;direction=south;fillColor=#596780;strokeColor=none;html=1" parent="fB9JVBKdTHwXwevY102O-19" vertex="1">
          <mxGeometry x="1" y="0.5" width="12" height="6" relative="1" as="geometry">
            <mxPoint x="-20" y="-3" as="offset" />
          </mxGeometry>
        </mxCell>
        <mxCell id="fB9JVBKdTHwXwevY102O-21" value="Display&amp;nbsp; amounts between:" style="text;html=1;strokeColor=none;fillColor=none;align=left;verticalAlign=middle;whiteSpace=wrap;rounded=0;" parent="k5Fv5MesE7oB9ST0vC1J-1" vertex="1">
          <mxGeometry y="55" width="124" height="20" as="geometry" />
        </mxCell>
        <mxCell id="fB9JVBKdTHwXwevY102O-22" value="Start" style="rounded=1;html=1;fontColor=#596780;align=left;fontSize=12;spacingLeft=10;strokeColor=#CED4DA;fillColor=none;" parent="k5Fv5MesE7oB9ST0vC1J-1" vertex="1">
          <mxGeometry x="544" y="50" width="100" height="30" as="geometry" />
        </mxCell>
        <mxCell id="fB9JVBKdTHwXwevY102O-23" value="" style="shape=triangle;direction=south;fillColor=#596780;strokeColor=none;html=1" parent="fB9JVBKdTHwXwevY102O-22" vertex="1">
          <mxGeometry x="1" y="0.5" width="12" height="6" relative="1" as="geometry">
            <mxPoint x="-20" y="-3" as="offset" />
          </mxGeometry>
        </mxCell>
        <mxCell id="fB9JVBKdTHwXwevY102O-24" value="End" style="rounded=1;html=1;fontColor=#596780;align=left;fontSize=12;spacingLeft=10;strokeColor=#CED4DA;fillColor=none;" parent="k5Fv5MesE7oB9ST0vC1J-1" vertex="1">
          <mxGeometry x="654" y="50" width="100" height="30" as="geometry" />
        </mxCell>
        <mxCell id="fB9JVBKdTHwXwevY102O-25" value="" style="shape=triangle;direction=south;fillColor=#596780;strokeColor=none;html=1" parent="fB9JVBKdTHwXwevY102O-24" vertex="1">
          <mxGeometry x="1" y="0.5" width="12" height="6" relative="1" as="geometry">
            <mxPoint x="-20" y="-3" as="offset" />
          </mxGeometry>
        </mxCell>
        <mxCell id="fB9JVBKdTHwXwevY102O-26" value="Display requests submitted within this date range:" style="text;html=1;strokeColor=none;fillColor=none;align=left;verticalAlign=middle;whiteSpace=wrap;rounded=0;" parent="k5Fv5MesE7oB9ST0vC1J-1" vertex="1">
          <mxGeometry x="380" y="55" width="164" height="20" as="geometry" />
        </mxCell>
      </root>
    </mxGraphModel>
  </diagram>
  <diagram id="fKQovA9FEBCto5yDDUpR" name="Contact Management">
    <mxGraphModel dx="790" dy="859" grid="1" gridSize="10" guides="1" tooltips="1" connect="1" arrows="1" fold="1" page="0" pageScale="1" pageWidth="850" pageHeight="1100" math="0" shadow="0">
      <root>
        <mxCell id="eOtVbwVf-g6T9IExGPTB-0" />
        <mxCell id="eOtVbwVf-g6T9IExGPTB-1" parent="eOtVbwVf-g6T9IExGPTB-0" />
        <mxCell id="7scjvrl678XsziXBGYkP-115" value="" style="rounded=0;whiteSpace=wrap;html=1;strokeColor=#000000;strokeWidth=1;fillColor=#ffffff;fontSize=14;fontColor=#4FBEFF;align=center;" vertex="1" parent="eOtVbwVf-g6T9IExGPTB-1">
          <mxGeometry x="90.5" y="-26.5" width="799" height="745" as="geometry" />
        </mxCell>
        <mxCell id="7scjvrl678XsziXBGYkP-77" value="User ID" style="html=1;fillColor=none;strokeColor=none;fontSize=11;align=left;fontColor=#596780;whiteSpace=wrap;rounded=0;" vertex="1" parent="eOtVbwVf-g6T9IExGPTB-1">
          <mxGeometry x="155" y="290" width="70" height="20" as="geometry" />
        </mxCell>
        <mxCell id="7scjvrl678XsziXBGYkP-78" value="Mobile" style="html=1;fillColor=none;strokeColor=none;fontSize=11;align=left;fontColor=#596780;whiteSpace=wrap;rounded=0;" vertex="1" parent="eOtVbwVf-g6T9IExGPTB-1">
          <mxGeometry x="494" y="290" width="100" height="20" as="geometry" />
        </mxCell>
        <mxCell id="7scjvrl678XsziXBGYkP-79" value="Verified" style="html=1;fillColor=none;strokeColor=none;fontSize=11;align=left;fontColor=#596780;whiteSpace=wrap;rounded=0;" vertex="1" parent="eOtVbwVf-g6T9IExGPTB-1">
          <mxGeometry x="628" y="290" width="30" height="20" as="geometry" />
        </mxCell>
        <mxCell id="7scjvrl678XsziXBGYkP-80" value="" style="shape=line;strokeWidth=2;html=1;strokeColor=#DFE1E5;resizeWidth=1;rounded=0;fillColor=#ffffff;fontSize=14;fontColor=#4FBEFF;align=center;" vertex="1" parent="eOtVbwVf-g6T9IExGPTB-1">
          <mxGeometry x="110" y="310" width="750" height="10" as="geometry" />
        </mxCell>
        <mxCell id="7scjvrl678XsziXBGYkP-81" value="" style="shape=mxgraph.ios7.icons.user;fillColor=#ffffff;strokeColor=#253858;rounded=0;fontSize=14;fontColor=#4FBEFF;align=center;" vertex="1" parent="eOtVbwVf-g6T9IExGPTB-1">
          <mxGeometry x="250" y="332" width="24" height="24" as="geometry" />
        </mxCell>
        <mxCell id="7scjvrl678XsziXBGYkP-82" value="Mika Hanekken&lt;br&gt;&lt;span style=&quot;font-weight: normal&quot;&gt;&lt;font color=&quot;#596780&quot; style=&quot;font-size: 11px&quot;&gt;IT - Development Team&lt;/font&gt;&lt;/span&gt;" style="html=1;fillColor=none;strokeColor=none;fontSize=12;align=left;fontColor=#000000;whiteSpace=wrap;fontStyle=1;rounded=0;" vertex="1" parent="eOtVbwVf-g6T9IExGPTB-1">
          <mxGeometry x="291.5" y="328" width="129" height="30" as="geometry" />
        </mxCell>
        <mxCell id="7scjvrl678XsziXBGYkP-106" value="staging" style="rounded=1;arcSize=5;fillColor=#F2F3F5;strokeColor=none;fontColor=#A5ADBA;align=center;verticalAlign=middle;whiteSpace=wrap;fontSize=12;fontStyle=1;html=1" vertex="1" parent="eOtVbwVf-g6T9IExGPTB-1">
          <mxGeometry x="560" y="440" width="50" height="20" as="geometry" />
        </mxCell>
        <mxCell id="7scjvrl678XsziXBGYkP-112" value="" style="html=1;shadow=0;dashed=0;shape=mxgraph.atlassian.checkbox;strokeColor=none;fontColor=#ffffff;align=center;verticalAlign=middle;whiteSpace=wrap;fontSize=10;fontStyle=0;html=1;rounded=0;fillColor=#688F52;" vertex="1" parent="eOtVbwVf-g6T9IExGPTB-1">
          <mxGeometry x="642" y="335" width="16" height="16" as="geometry" />
        </mxCell>
        <mxCell id="7scjvrl678XsziXBGYkP-113" value="This PR has been merged" style="rounded=1;arcSize=5;fillColor=#172B4D;strokeColor=none;fontColor=#ffffff;align=center;verticalAlign=middle;whiteSpace=wrap;fontSize=12;fontStyle=0;html=1" vertex="1" parent="eOtVbwVf-g6T9IExGPTB-1">
          <mxGeometry x="594" y="460" width="160" height="20" as="geometry" />
        </mxCell>
        <mxCell id="7scjvrl678XsziXBGYkP-114" value="" style="shape=line;strokeWidth=2;html=1;strokeColor=#DFE1E5;resizeWidth=1;rounded=0;fillColor=#ffffff;fontSize=14;fontColor=#4FBEFF;align=center;" vertex="1" parent="eOtVbwVf-g6T9IExGPTB-1">
          <mxGeometry x="110" y="518" width="750" height="10" as="geometry" />
        </mxCell>
        <mxCell id="gg30P1o4848aHn6adobY-1" value="Yes" style="rounded=1;html=1;fontColor=#596780;align=left;fontSize=12;spacingLeft=10;strokeColor=#CED4DA;fillColor=none;" vertex="1" parent="eOtVbwVf-g6T9IExGPTB-1">
          <mxGeometry x="271" y="160" width="100" height="30" as="geometry" />
        </mxCell>
        <mxCell id="gg30P1o4848aHn6adobY-2" value="" style="shape=triangle;direction=south;fillColor=#596780;strokeColor=none;html=1" vertex="1" parent="gg30P1o4848aHn6adobY-1">
          <mxGeometry x="1" y="0.5" width="12" height="6" relative="1" as="geometry">
            <mxPoint x="-20" y="-3" as="offset" />
          </mxGeometry>
        </mxCell>
        <mxCell id="gg30P1o4848aHn6adobY-3" value="Search user ID and mobile..." style="html=1;shadow=0;dashed=0;shape=mxgraph.bootstrap.rrect;rSize=5;strokeColor=#CED4DA;strokeWidth=1;fontColor=#505050;whiteSpace=wrap;align=left;verticalAlign=middle;spacingLeft=10;fontSize=14;fillColor=none;" vertex="1" parent="eOtVbwVf-g6T9IExGPTB-1">
          <mxGeometry x="120" y="70" width="374" height="30" as="geometry" />
        </mxCell>
        <mxCell id="gg30P1o4848aHn6adobY-9" value="Start" style="rounded=1;html=1;fontColor=#596780;align=left;fontSize=12;spacingLeft=10;strokeColor=#CED4DA;fillColor=none;" vertex="1" parent="eOtVbwVf-g6T9IExGPTB-1">
          <mxGeometry x="271" y="120" width="100" height="30" as="geometry" />
        </mxCell>
        <mxCell id="gg30P1o4848aHn6adobY-10" value="" style="shape=triangle;direction=south;fillColor=#596780;strokeColor=none;html=1" vertex="1" parent="gg30P1o4848aHn6adobY-9">
          <mxGeometry x="1" y="0.5" width="12" height="6" relative="1" as="geometry">
            <mxPoint x="-20" y="-3" as="offset" />
          </mxGeometry>
        </mxCell>
        <mxCell id="gg30P1o4848aHn6adobY-11" value="End" style="rounded=1;html=1;fontColor=#596780;align=left;fontSize=12;spacingLeft=10;strokeColor=#CED4DA;fillColor=none;" vertex="1" parent="eOtVbwVf-g6T9IExGPTB-1">
          <mxGeometry x="380" y="120" width="100" height="30" as="geometry" />
        </mxCell>
        <mxCell id="gg30P1o4848aHn6adobY-12" value="" style="shape=triangle;direction=south;fillColor=#596780;strokeColor=none;html=1" vertex="1" parent="gg30P1o4848aHn6adobY-11">
          <mxGeometry x="1" y="0.5" width="12" height="6" relative="1" as="geometry">
            <mxPoint x="-20" y="-3" as="offset" />
          </mxGeometry>
        </mxCell>
        <mxCell id="gg30P1o4848aHn6adobY-13" value="Users added between:" style="text;html=1;strokeColor=none;fillColor=none;align=left;verticalAlign=middle;whiteSpace=wrap;rounded=0;" vertex="1" parent="eOtVbwVf-g6T9IExGPTB-1">
          <mxGeometry x="120" y="125" width="130" height="20" as="geometry" />
        </mxCell>
        <mxCell id="gg30P1o4848aHn6adobY-14" value="Verified:" style="text;html=1;strokeColor=none;fillColor=none;align=left;verticalAlign=middle;whiteSpace=wrap;rounded=0;" vertex="1" parent="eOtVbwVf-g6T9IExGPTB-1">
          <mxGeometry x="120" y="165" width="130" height="20" as="geometry" />
        </mxCell>
        <mxCell id="gg30P1o4848aHn6adobY-15" value="TC-MP-0001" style="text;html=1;strokeColor=none;fillColor=none;align=left;verticalAlign=middle;whiteSpace=wrap;rounded=0;" vertex="1" parent="eOtVbwVf-g6T9IExGPTB-1">
          <mxGeometry x="145" y="336" width="80" height="20" as="geometry" />
        </mxCell>
        <mxCell id="gg30P1o4848aHn6adobY-16" value="Name" style="html=1;fillColor=none;strokeColor=none;fontSize=11;align=left;fontColor=#596780;whiteSpace=wrap;rounded=0;" vertex="1" parent="eOtVbwVf-g6T9IExGPTB-1">
          <mxGeometry x="321" y="290" width="70" height="20" as="geometry" />
        </mxCell>
        <mxCell id="gg30P1o4848aHn6adobY-19" value="639091123311" style="text;html=1;strokeColor=none;fillColor=none;align=left;verticalAlign=middle;whiteSpace=wrap;rounded=0;" vertex="1" parent="eOtVbwVf-g6T9IExGPTB-1">
          <mxGeometry x="470" y="334" width="80" height="20" as="geometry" />
        </mxCell>
        <mxCell id="ZZ2k_vg_PL7IoD-Yl0pK-0" value="Edit" style="html=1;fillColor=none;strokeColor=none;fontSize=12;align=center;whiteSpace=wrap;fontStyle=4;rounded=0;fontColor=#4FBEFF;" vertex="1" parent="eOtVbwVf-g6T9IExGPTB-1">
          <mxGeometry x="740" y="334" width="40" height="20" as="geometry" />
        </mxCell>
        <mxCell id="Po9vbD1sa6VoGEwRG2lD-0" value="" style="dashed=0;labelPosition=right;align=left;shape=mxgraph.gmdl.checkbox;strokeColor=none;fillColor=#009587;strokeWidth=2;" vertex="1" parent="eOtVbwVf-g6T9IExGPTB-1">
          <mxGeometry x="120" y="341" width="10" height="10" as="geometry" />
        </mxCell>
        <mxCell id="Po9vbD1sa6VoGEwRG2lD-1" value="Remove" style="html=1;fillColor=none;strokeColor=none;fontSize=12;align=center;whiteSpace=wrap;fontStyle=4;rounded=0;fontColor=#4FBEFF;" vertex="1" parent="eOtVbwVf-g6T9IExGPTB-1">
          <mxGeometry x="790" y="334" width="40" height="20" as="geometry" />
        </mxCell>
      </root>
    </mxGraphModel>
  </diagram>
</mxfile>
